<?xml version="1.0" encoding="UTF-8"?>
<svg width="13px" height="15px" viewBox="0 0 13 15" version="1.1" xmlns="http://www.w3.org/2000/svg" xmlns:xlink="http://www.w3.org/1999/xlink">
    <title>Bell@1.5x</title>
    <g id="Login" stroke="none" stroke-width="1" fill="none" fill-rule="evenodd">
        <g id="G01" transform="translate(-160.000000, -257.000000)" fill="#FFFFFF">
            <g id="Group-14" transform="translate(151.000000, 152.000000)">
                <g id="Group-19-Copy" transform="translate(0.000000, 37.000000)">
                    <g id="Group-21" transform="translate(0.000000, 53.787234)">
                        <g id="Group-12" transform="translate(8.999981, 12.787234)">
                            <path d="M11.372268,13.1250021 C11.8950557,13.1250021 12.2472659,12.6984513 12.2500083,12.2500042 C12.2513514,12.0435647 12.1786129,11.8324789 12.0145508,11.6563738 C11.486289,11.0887254 10.4978041,10.2347693 10.4978041,7.43751565 C10.4978041,5.312906 9.00813403,3.61212346 6.99946801,3.19486524 L6.99946801,2.62502712 C6.99946801,2.14186635 6.6078979,1.75002921 6.12500415,1.75002921 C5.64211041,1.75002921 5.2505403,2.14186635 5.2505403,2.62502712 L5.2505403,3.19486524 C3.24187428,3.61212346 1.75220422,5.312906 1.75220422,7.43751565 C1.75220422,10.2347693 0.76371933,11.0887254 0.235457497,11.6563738 C0.0713953884,11.832746 -0.00134308566,12.0435647 0,12.2500042 C0.00303617636,12.6984513 0.354952604,13.1250021 0.877740359,13.1250021 L11.372268,13.1250021 Z M10.403463,11.8125052 L1.84654527,11.8125052 C2.42677078,11.0477098 3.06114961,9.78004699 3.06414033,7.45337712 L3.06251146,7.43751565 L3.06251146,7.43751565 C3.06251146,5.74602569 4.4335142,4.37502295 6.12500415,4.37502295 C7.81649411,4.37502295 9.18749685,5.74602569 9.18749685,7.43751565 L9.18586798,7.45337712 L9.18586798,7.45337712 C9.1888587,9.78031402 9.82323753,11.0479769 10.403463,11.8125052 Z M4.37583611,14 C4.37583611,14.9665886 5.15921666,15.7499958 6.12500415,15.7499958 C7.09079165,15.7499958 7.8741722,14.9665886 7.8741722,14" id="Bell"></path>
                        </g>
                    </g>
                </g>
            </g>
        </g>
    </g>
</svg>