<?xml version="1.0" encoding="UTF-8"?>
<svg width="19px" height="20px" viewBox="0 0 19 20" version="1.1" xmlns="http://www.w3.org/2000/svg" xmlns:xlink="http://www.w3.org/1999/xlink">
    <title>Bid@1.5x</title>
    <g id="Login" stroke="none" stroke-width="1" fill="none" fill-rule="evenodd">
        <g id="F08" transform="translate(-801.000000, -126.000000)" fill="#FFFFFF">
            <g id="Group-14" transform="translate(150.000000, 126.375040)">
                <path d="M665.927573,18.9999547 C668.175294,18.9999547 669.997744,17.3385893 669.997744,15.289026 C669.997744,15.2559822 669.998419,15.2123713 669.999028,15.1588074 L669.999363,14.8929235 C669.982048,13.3389769 669.557833,8.25196455 663.097627,4.3013432 L665.153496,1.28882292 C665.205355,1.18503288 665.247465,1.00662564 665.247465,0.890622877 C665.247465,0.400374412 664.849592,0.00137710243 664.359343,0 L656.640539,0 C656.148914,0 655.749916,0.398997309 655.749916,0.890622877 C655.749916,1.00662564 655.79199,1.18503288 655.843885,1.28882292 L657.902327,4.30170559 C651.406291,8.27390264 651.010914,13.3329401 651.00012,14.8902628 L651.000704,15.1000566 C651.001163,15.1403736 651.00173,15.1763988 651.002182,15.2079532 L651.002972,15.289026 L651.002972,15.289026 C651.002972,17.3385893 652.825422,18.9999547 655.073469,18.9999547 L665.927573,18.9999547 Z M661.244374,3.8593658 L659.755581,3.8593658 L658.337238,1.78124575 L662.662717,1.78124575 L661.244374,3.8593658 Z M665.927573,17.2187089 L655.073469,17.2187089 C653.811753,17.2187089 652.78458,16.3529464 652.78458,15.289026 C652.754139,12.2831738 653.995451,8.77819448 659.126934,5.64061155 L661.875993,5.64061155 C666.981491,8.76445969 668.241359,12.2805646 668.216498,15.289026 C668.216498,16.3529464 667.189651,17.2187089 665.927573,17.2187089 Z M661.145693,15.0663703 C662.099011,15.0426334 662.870514,14.243298 662.874609,13.2643593 C662.874972,12.4665097 662.349861,11.7550913 661.598796,11.5313484 L659.780441,10.9917779 C659.570759,10.9316565 659.425294,10.723859 659.425294,10.4840982 C659.425294,10.1924424 659.639397,9.95677672 659.901771,9.95677672 L661.036939,9.95677672 C661.191138,9.95771895 661.422708,10.0242185 661.553896,10.1052139 C661.600427,10.1369597 661.683959,10.1626898 661.740276,10.1626898 C661.810544,10.1626898 661.909913,10.1244933 661.962098,10.0773819 L662.434843,9.62576479 C662.489927,9.57397849 662.53461,9.47058709 662.53461,9.39495517 C662.53461,9.30859635 662.478946,9.19585515 662.410381,9.14334406 C662.097779,8.91373035 661.529688,8.71140501 661.142323,8.69172694 L661.142323,8.038618 C661.141112,7.88725062 661.034812,7.7603516 660.893256,7.72718386 L660.819103,7.7187316 L660.171937,7.7187316 C659.995342,7.7187316 659.851036,7.86202273 659.84984,8.038618 L659.84984,8.68578366 C658.892391,8.71361562 658.124983,9.50925467 658.124983,10.4881933 C658.124983,11.2875288 658.650094,11.9989109 659.401158,12.2226901 L661.219513,12.7622605 C661.429195,12.8219833 661.574661,13.029817 661.574661,13.2695416 C661.574661,13.561596 661.360558,13.7972255 661.098183,13.7972255 L659.962617,13.7972255 C659.808418,13.7964645 659.576848,13.7299649 659.445697,13.6487883 C659.399201,13.6171512 659.315778,13.5914936 659.259534,13.5914936 C659.189157,13.5914936 659.08968,13.6297988 659.037495,13.6769827 L658.560655,14.124541 C658.505571,14.1763273 658.460887,14.2797549 658.460887,14.3553506 C658.460887,14.4417094 658.516551,14.5544506 658.585153,14.6069617 C658.897864,14.8365029 659.4661,15.0388283 659.853536,15.0585788 L659.853536,15.7098396 C659.854769,15.8864348 659.999038,16.029726 660.175633,16.029726 L660.82356,16.029726 C661.000155,16.029726 661.144461,15.8864348 661.145693,15.7098396" id="Bid"></path>
            </g>
        </g>
    </g>
</svg>