<?xml version="1.0" encoding="UTF-8"?>
<svg width="18px" height="21px" viewBox="0 0 18 21" version="1.1" xmlns="http://www.w3.org/2000/svg" xmlns:xlink="http://www.w3.org/1999/xlink">
    <title>discord@1.5x</title>
    <g id="Login" stroke="none" stroke-width="1" fill="none" fill-rule="evenodd">
        <g id="F01" transform="translate(-775.000000, -871.000000)" fill="#686767">
            <g id="Group-14" transform="translate(150.000000, 152.000000)">
                <g id="Group-Copy-4" transform="translate(585.000000, 421.000000)">
                    <g id="Group-5" transform="translate(0.000000, 281.000000)">
                        <path d="M40,33.0799911 C40,34.2200107 40.9199883,35.1399991 42.0500134,35.1399991 L53.3899751,35.1399991 L52.8599623,33.2899897 C55.7863622,36.0106253 54.9806619,35.2736657 57.4999583,37.499994 L57.4999583,19.5600496 C57.4999583,18.4200301 56.5799699,17.5000417 55.4499449,17.5000417 L42.0500134,17.5000417 C40.9199883,17.5000417 40,18.4200301 40,19.5600496 M51.5899763,30.5600081 C51.5899763,30.5600081 51.2299842,30.1300165 50.929959,29.7499973 C52.2399611,29.3800107 52.7399522,28.5600053 52.7399522,28.5600053 C52.3299877,28.8300089 51.939974,29.0200185 51.5899763,29.1500231 C49.4354405,30.0549434 47.0378708,29.7452289 45.3499857,28.8000255 C45.3296916,28.7864452 45.0871156,28.6529692 44.939983,28.5500108 C44.939983,28.5500108 45.4199852,29.3500272 46.6899712,29.7300083 C46.3899842,30.1100275 46.0199975,30.5600081 46.0199975,30.5600081 C43.8099961,30.4900086 42.9700018,29.0400075 42.9700018,29.0400075 C42.9700018,26.0151794 44.2407514,23.5286248 44.3947817,23.2383348 L44.4100084,23.2100196 L44.4100084,23.2100196 C45.8499769,22.1300432 47.219984,22.1599437 47.219984,22.1599437 L47.319967,22.2800367 C45.5199682,22.8000169 44.6900065,23.5900388 44.6900065,23.5900388 C44.6900065,23.5900388 44.9099996,23.4700287 45.2799862,23.3000462 C47.5842104,22.287895 50.3745404,22.2881239 52.7499849,23.5900388 C52.7499849,23.5900388 51.9599629,22.840033 50.2599853,22.3200147 L50.3999844,22.1599437 C50.3999844,22.1599437 51.7699533,22.1300432 53.20996,23.2100196 L53.2251867,23.2383348 C53.3792169,23.5286248 54.6499666,26.0151794 54.6499666,29.0400075 C54.6499666,29.0400075 53.7999778,30.4900086 51.5899763,30.5600081 Z M50.5899558,28.1100247 C51.1599847,28.1100247 51.6099653,27.6100335 51.6099653,27.0000267 C51.6099653,26.3900287 51.1599847,25.8900287 50.5899558,25.8900287 C50.0199651,25.8900287 49.5699845,26.3900287 49.5699845,27.0000267 C49.5699845,27.6100335 50.0299596,28.1100247 50.5899558,28.1100247 Z M46.9399859,28.1100247 C47.5099766,28.1100247 47.9599954,27.6100335 47.9599954,27.0000267 C47.9699898,26.3900287 47.5099766,25.8900287 46.9399859,25.8900287 C46.3699952,25.8900287 45.9199764,26.3900287 45.9199764,27.0000267 C45.9199764,27.6100335 46.3799897,28.1100247 46.9399859,28.1100247 Z" id="discord"></path>
                    </g>
                </g>
            </g>
        </g>
    </g>
</svg>