<?xml version="1.0" encoding="UTF-8"?>
<svg width="31px" height="23px" viewBox="0 0 31 23" version="1.1" xmlns="http://www.w3.org/2000/svg" xmlns:xlink="http://www.w3.org/1999/xlink">
    <title>image@1.5x</title>
    <g id="Login" stroke="none" stroke-width="1" fill="none" fill-rule="evenodd">
        <g id="F01" transform="translate(-285.000000, -380.000000)" fill="#acacac">
            <g id="Group-14" transform="translate(150.000000, 152.000000)">
                <g id="Group-3" transform="translate(2.000000, 60.000000)">
                    <g id="Group" transform="translate(0.500000, 82.000000)">
                        <path d="M162.999928,89.3125469 C162.999928,87.7592441 161.740738,86.5000536 160.187435,86.5000536 L135.812493,86.5000536 C134.25919,86.5000536 133,87.7592441 133,89.3125469 L133,106.187507 C133,107.74081 134.25919,109 135.812493,109 L160.187435,109 C161.740738,109 162.999928,107.74081 162.999928,106.187507 M159.835874,106.187507 L136.164055,106.187507 C135.970021,106.187507 135.812493,106.029979 135.812493,105.835945 L135.812493,89.6641086 C135.812493,89.4700745 135.970021,89.3125469 136.164055,89.3125469 L159.835874,89.3125469 C160.029908,89.3125469 160.187435,89.4700745 160.187435,89.6641086 L160.187435,105.835945 C160.187435,106.029979 160.029908,106.187507 159.835874,106.187507 Z M140.499982,96.3437802 C141.794363,96.3437802 142.843727,95.2944167 142.843727,94.0000358 C142.843727,92.7056548 141.794363,91.6562914 140.499982,91.6562914 C139.205601,91.6562914 138.156238,92.7056548 138.156238,94.0000358 C138.156238,95.2944167 139.205601,96.3437802 140.499982,96.3437802 Z M157.374942,103.375013 L157.374942,98.6875246 L152.247143,93.5597254 C151.972542,93.2851251 151.527368,93.2851251 151.252711,93.5597254 L144.249973,100.56252 L141.934667,98.2472142 C141.660067,97.9726139 141.214893,97.9726139 140.940235,98.2472142 L138.624987,100.56252 L138.624987,103.375013 L157.374942,103.375013 Z" id="image"></path>
                    </g>
                </g>
            </g>
        </g>
    </g>
</svg>