<?xml version="1.0" encoding="UTF-8"?>
<svg width="18px" height="19px" viewBox="0 0 18 19" version="1.1" xmlns="http://www.w3.org/2000/svg" xmlns:xlink="http://www.w3.org/1999/xlink">
    <title>medium@1.5x</title>
    <g id="Login" stroke="none" stroke-width="1" fill="none" fill-rule="evenodd">
        <g id="F01" transform="translate(-774.000000, -746.000000)" fill="#686767">
            <g id="Group-14" transform="translate(150.000000, 152.000000)">
                <g id="Group-Copy-4" transform="translate(585.000000, 421.000000)">
                    <g id="Group-5" transform="translate(0.000000, 155.000000)">
                        <path d="M39,36.249997 L56.4999583,36.249997 L56.4999583,18.7500387 L39,18.7500387 M53.5195043,32.0273661 L48.9101403,32.0273661 L48.9101403,31.835945 L49.8593491,30.9140875 C49.9531141,30.8203225 49.9531141,30.7929712 49.9531141,30.6523617 L49.9531141,25.304703 L47.3124726,32.0078349 L46.9570199,32.0078349 L43.8828009,25.304703 L43.8828009,29.7968798 C43.8554495,29.9843717 43.9218633,30.1757928 44.0546907,30.3125112 L45.2890475,31.8085937 L45.2890475,32.0078349 L41.781251,32.0078349 L41.781251,31.8085937 L43.0156078,30.3125112 C43.1484352,30.1757928 43.2070288,29.9843717 43.1757866,29.7968798 L43.1757866,24.6015797 C43.1913886,24.4570411 43.1367241,24.3164317 43.0273189,24.2187757 L41.9296805,22.8945449 L41.9296805,22.6953418 L45.339821,22.6953418 L47.9726425,28.4765781 L50.2890356,22.6992328 L53.5390355,22.6992328 L53.5390355,22.8945449 L52.6015377,23.7929802 C52.5194838,23.855503 52.4804214,23.9570499 52.4960616,24.054706 L52.4960616,30.6679638 C52.4804214,30.769549 52.5194838,30.871096 52.6015377,30.9296896 L53.5195043,31.8281249 L53.5195043,32.0273661 Z" id="medium"></path>
                    </g>
                </g>
            </g>
        </g>
    </g>
</svg>