<?xml version="1.0" encoding="UTF-8"?>
<svg width="20px" height="18px" viewBox="0 0 20 18" version="1.1" xmlns="http://www.w3.org/2000/svg" xmlns:xlink="http://www.w3.org/1999/xlink">
    <title>Mint@1.5x</title>
    <g id="Login" stroke="none" stroke-width="1" fill="none" fill-rule="evenodd">
        <g id="D09" transform="translate(-102.000000, -1065.000000)" fill="#525252">
            <path d="M106.435914,1078.46271 C107.511706,1079.9203 109.557,1081.31152 112.24314,1081.02599 C117.456018,1080.64746 121.124954,1075.97248 121.124954,1070.24826 C121.124954,1068.58146 120.766368,1066.8549 120.13551,1065.44711 C119.949554,1065.03207 119.418305,1065.01547 119.19587,1065.40726 C118.166576,1067.19692 116.323807,1068.31253 114.218721,1068.31253 L111.562477,1068.31253 C108.042954,1068.31253 105.187492,1071.16799 105.187492,1074.68751 C105.187492,1074.91993 105.214048,1075.1424 105.237297,1075.36818 C107.355645,1073.85079 110.413665,1072.56252 114.74997,1072.56252 C115.04215,1072.56252 115.281218,1072.80159 115.281218,1073.09377 C115.281218,1073.38595 115.04215,1073.62502 114.74997,1073.62502 C106.402711,1073.62502 102.863279,1078.74159 102.0797,1080.66406 C101.860541,1081.20526 102.119518,1081.82286 102.660754,1082.04529 C103.205264,1082.2711 103.82286,1082.00878 104.048634,1081.47089" id="Mint"></path>
        </g>
    </g>
</svg>