<?xml version="1.0" encoding="UTF-8"?>
<svg width="14px" height="14px" viewBox="0 0 14 14" version="1.1" xmlns="http://www.w3.org/2000/svg" xmlns:xlink="http://www.w3.org/1999/xlink">
    <title>support@1.5x</title>
    <g id="Login" stroke="none" stroke-width="1" fill="none" fill-rule="evenodd">
        <g id="G01" transform="translate(-157.000000, -312.000000)" fill="#FFFFFF">
            <g id="Group-14" transform="translate(151.000000, 152.000000)">
                <g id="Group-19-Copy" transform="translate(0.000000, 37.000000)">
                    <g id="Group-21-Copy" transform="translate(0.000000, 107.574468)">
                        <g id="Group-12" transform="translate(6.218749, 12.787234)">
                            <path d="M6.78123383,16.5312463 C10.5264108,16.5312463 13.5624677,13.4951894 13.5624677,9.75001252 C13.5624677,6.00483559 10.5264108,2.96877868 6.78123383,2.96877868 C3.03605691,2.96877868 0,6.00483559 0,9.75001252 C0,13.4951894 3.03605691,16.5312463 6.78123383,16.5312463 Z M8.14804423,6.52703589 C7.27833348,6.15776263 6.2851756,6.15730868 5.41439673,6.52703589 L3.95393955,5.06657871 C5.68254642,4.01881357 7.87992125,4.01881357 9.60850141,5.06657871 L8.14804423,6.52703589 Z M11.4646676,6.92271823 C12.5124328,8.6513251 12.5124328,10.8486999 11.4646676,12.5773068 L10.0042105,11.1168496 C10.3734837,10.2471389 10.3739377,9.25398098 10.0042105,8.38317541 M2.09780002,12.5773068 C1.05003488,10.8486999 1.05003488,8.6513251 2.09780002,6.92271823 L3.5582572,8.38317541 C3.18895724,9.25288617 3.18853,10.246044 3.5582572,11.1168496 L2.09780002,12.5773068 Z M6.78123383,11.9375073 C5.57504088,11.9375073 4.59373905,10.9562055 4.59373905,9.75001252 C4.59373905,8.54381956 5.57504088,7.56251773 6.78123383,7.56251773 C7.98742679,7.56251773 8.96872862,8.54381956 8.96872862,9.75001252 C8.96872862,10.9562055 7.98742679,11.9375073 6.78123383,11.9375073 Z M3.95393955,14.4334463 L5.41439673,12.9729891 C6.28410748,13.3422891 7.27726536,13.3427164 8.14807094,12.9729891 L9.60852812,14.4334463 C7.87992125,15.4812115 5.68254642,15.4812115 3.95393955,14.4334463 Z" id="support"></path>
                        </g>
                    </g>
                </g>
            </g>
        </g>
    </g>
</svg>