<?xml version="1.0" encoding="UTF-8"?>
<svg width="20px" height="21px" viewBox="0 0 20 21" version="1.1" xmlns="http://www.w3.org/2000/svg" xmlns:xlink="http://www.w3.org/1999/xlink">
    <title>Telegram@1.5x</title>
    <g id="Login" stroke="none" stroke-width="1" fill="none" fill-rule="evenodd">
        <g id="F01" transform="translate(-774.000000, -808.000000)" fill="#686767">
            <g id="Group-14" transform="translate(150.000000, 152.000000)">
                <g id="Group-Copy-4" transform="translate(585.000000, 421.000000)">
                    <g id="Group-5" transform="translate(0.000000, 218.000000)">
                        <path d="M48.6874769,37.1874948 C54.0390266,37.1874948 58.3749538,32.8515676 58.3749538,27.5000179 C58.3749538,22.1484681 54.0390266,17.812541 48.6874769,17.812541 C43.3359272,17.812541 39,22.1484681 39,27.5000179 C39,32.8515676 43.3359272,37.1874948 48.6874769,37.1874948 Z M43.3242161,28.0586027 C42.8046937,27.8945329 42.7929444,27.5390803 43.4335832,27.2890656 L52.7733894,23.6875422 C53.207005,23.5312926 53.585918,23.7929802 53.4452704,24.4492592 L51.8554228,31.9414212 C51.7382356,32.4726546 51.4218454,32.601553 50.9804478,32.3515764 L48.5585786,30.5664168 L47.3905974,31.6914065 C47.2616991,31.8203048 47.1523319,31.9297101 46.9023173,31.9297101 L47.0742071,29.4648493 L51.5624548,25.4101791 C51.7577668,25.2382893 51.5195014,25.1406332 51.2617048,25.3125231 L45.714843,28.8047175" id="Telegram"></path>
                    </g>
                </g>
            </g>
        </g>
    </g>
</svg>