<?xml version="1.0" encoding="UTF-8"?>
<svg width="13px" height="15px" viewBox="0 0 13 15" version="1.1" xmlns="http://www.w3.org/2000/svg" xmlns:xlink="http://www.w3.org/1999/xlink">
    <title>Shape@1.5x</title>
    <g id="Login" stroke="none" stroke-width="1" fill="none" fill-rule="evenodd">
        <g id="G03" transform="translate(-161.000000, -203.000000)" fill="#FFFFFF">
            <g id="Group-14" transform="translate(151.000000, 152.000000)">
                <g id="Group-19-Copy" transform="translate(0.000000, 37.000000)">
                    <g id="Group-12" transform="translate(10.000000, 13.000000)">
                        <path d="M6.1249854,9.62501043 C8.29880834,9.62501043 10.062476,7.86134276 10.062476,5.68751982 C10.062476,3.51369688 8.29880834,1.75002921 6.1249854,1.75002921 C3.95116245,1.75002921 2.18749478,3.51369688 2.18749478,5.68751982 C2.18749478,7.86134276 3.95116245,9.62501043 6.1249854,9.62501043 Z M6.1249854,8.31251356 C4.67849379,8.31251356 3.49999166,7.13401143 3.49999166,5.68751982 C3.49999166,4.24102821 4.67849379,3.06252608 6.1249854,3.06252608 C7.571477,3.06252608 8.74997914,4.24102821 8.74997914,5.68751982 C8.74997914,7.13401143 7.571477,8.31251356 6.1249854,8.31251356 Z M10.9374739,15.7499958 C11.6620816,15.7499958 12.2499708,15.1621066 12.2499708,14.437499 L12.2499708,13.7375113 C12.2499708,11.7086046 10.6038756,10.0625094 8.57496887,10.0625094 C7.79022648,10.0625094 7.41286227,10.5000083 6.1249854,10.5000083 C4.83710852,10.5000083 4.4624947,10.0625094 3.67500192,10.0625094 C1.64609517,10.0625094 0,11.7086046 0,13.7375113 L0,14.437499 C0,15.1621066 0.587889223,15.7499958 1.31249687,15.7499958 L10.9374739,15.7499958 Z M1.31249687,14.437499 L1.31249687,13.7375113 C1.31249687,12.4359359 2.3734265,11.3750063 3.67500192,11.3750063 C4.07420904,11.3750063 4.72225971,11.8125052 6.1249854,11.8125052 C7.53865924,11.8125052 8.17303807,11.3750063 8.57496887,11.3750063 C9.87654429,11.3750063 10.9374739,12.4359359 10.9374739,13.7375113 L10.9374739,14.437499" id="Shape"></path>
                    </g>
                </g>
            </g>
        </g>
    </g>
</svg>